<?xml version="1.0" encoding="UTF-8" standalone="no"?>
<!-- Created with Inkscape (http://www.inkscape.org/) -->

<svg
   xmlns:dc="http://purl.org/dc/elements/1.1/"
   xmlns:cc="http://creativecommons.org/ns#"
   xmlns:rdf="http://www.w3.org/1999/02/22-rdf-syntax-ns#"
   xmlns:svg="http://www.w3.org/2000/svg"
   xmlns="http://www.w3.org/2000/svg"
   xmlns:sodipodi="http://sodipodi.sourceforge.net/DTD/sodipodi-0.dtd"
   xmlns:inkscape="http://www.inkscape.org/namespaces/inkscape"
   width="49.086613"
   height="49.086613"
   id="svg3877"
   version="1.1"
   inkscape:version="0.48.4 r9939"
   sodipodi:docname="chart_logo.svg">
  <defs
     id="defs3" />
  <sodipodi:namedview
     inkscape:document-units="mm"
     id="base"
     pagecolor="#ffffff"
     bordercolor="#666666"
     borderopacity="1.0"
     inkscape:pageopacity="0.0"
     inkscape:pageshadow="2"
     inkscape:zoom="8.66"
     inkscape:cx="5.673"
     inkscape:cy="28.487945"
     inkscape:current-layer="layer3"
     showgrid="false"
     inkscape:window-width="1114"
     inkscape:window-height="778"
     inkscape:window-x="166"
     inkscape:window-y="34"
     inkscape:window-maximized="0"
     units="mm"
     fit-margin-top="1"
     fit-margin-left="1"
     fit-margin-right="1"
     fit-margin-bottom="1" />
  <metadata
     id="metadata4">
    <rdf:RDF>
      <cc:Work
         rdf:about="">
        <dc:format>image/svg+xml</dc:format>
        <dc:type
           rdf:resource="http://purl.org/dc/dcmitype/StillImage" />
        <dc:title />
      </cc:Work>
    </rdf:RDF>
  </metadata>
  <g
     inkscape:label="Layer 1"
     inkscape:groupmode="layer"
     id="layer1"
     transform="translate(-298.31844,-716.3903)" />
  <g
     inkscape:groupmode="layer"
     id="layer3"
     inkscape:label="hash"
     style="display:inline">
    <g
       id="g3015">
      <g
         id="g2989"
         transform="translate(-298.31844,-716.3903)">
        <path
           transform="matrix(0.94,0,0,0.9075862,138.86175,379.85869)"
           sodipodi:type="arc"
           id="path3028-4-5-3"
           sodipodi:cx="195.74467"
           sodipodi:cy="397.84091"
           sodipodi:rx="22.340425"
           sodipodi:ry="23.138298"
           d="m 218.0851,397.84091 c 0,12.77893 -10.00215,23.1383 -22.34043,23.1383 -12.33827,0 -22.34042,-10.35937 -22.34042,-23.1383 0,-12.77893 10.00215,-23.1383 22.34042,-23.1383 12.33828,0 22.34043,10.35937 22.34043,23.1383 z"
           style="fill:#c60032;fill-opacity:1;stroke:none" />
        <path
           style="fill:#cd7e96;stroke:none;fill-opacity:1"
           d="M 22.405102,45.398543 C 18.324212,44.933152 14.273185,43.231527 11.246185,40.711266 8.0133608,38.019635 5.7119538,34.568246 4.4694466,30.548281 4.1064296,29.373788 3.6960691,27.410087 3.793325,27.312831 c 0.030266,-0.03026 4.594038,-0.647538 10.141717,-1.371716 5.547679,-0.724178 10.201448,-1.33669 10.341709,-1.361137 0.231836,-0.04041 0.683247,0.800314 4.965358,9.247656 2.590686,5.110657 4.725247,9.330796 4.743471,9.378085 0.04351,0.112912 -1.938435,0.932205 -3.325644,1.374748 -2.321909,0.740727 -5.859183,1.09128 -8.254834,0.818076 z"
           id="path3760"
           inkscape:connector-curvature="0"
           transform="translate(298.31844,716.3903)" />
        <path
           style="fill:#de6683;stroke:none;fill-opacity:1"
           d="m 31.928629,38.792008 c -1.236785,-2.428997 -3.372882,-6.630727 -4.746881,-9.337177 l -2.498181,-4.920819 8.089588,-5.991922 c 4.449273,-3.295556 8.229566,-6.083531 8.400651,-6.195499 l 0.311066,-0.203577 0.57696,0.896418 c 1.648359,2.561045 2.777,5.524079 3.206853,8.418986 0.208695,1.405494 0.238217,4.387406 0.05699,5.756878 -0.488017,3.687875 -2.178323,7.692384 -4.362355,10.334873 -0.807451,0.976943 -2.18454,2.365659 -3.142518,3.169051 -0.724045,0.607206 -3.443426,2.489147 -3.596787,2.489147 -0.02568,0 -1.058605,-1.987361 -2.29539,-4.416359 z"
           id="path3762"
           inkscape:connector-curvature="0"
           transform="translate(298.31844,716.3903)" />
        <path
           style="fill:#d03b5f;stroke:none;fill-opacity:1"
           d="m 24.656834,13.880322 0,-10.3904002 0.490762,0.055355 c 0.269919,0.030445 0.984411,0.1095546 1.58776,0.1757988 3.473735,0.3813964 6.56348,1.5022095 9.526559,3.4557848 1.005399,0.6628659 1.676628,1.2456868 3.219688,2.795624 1.07571,1.0805039 1.903806,2.0006219 1.847575,2.0528859 -0.240692,0.223713 -16.540485,12.245353 -16.603119,12.245353 -0.03807,0 -0.06922,-4.67568 -0.06922,-10.390401 z"
           id="path3764"
           inkscape:connector-curvature="0"
           transform="translate(298.31844,716.3903)" />
      </g>
      <g
         id="text3003-0-4-0"
         style="font-size:46px;font-style:normal;font-weight:normal;line-height:125%;letter-spacing:0px;word-spacing:0px;fill:#ffffff;fill-opacity:1;stroke:none;font-family:Sans"
         transform="translate(-298.06862,-716.58308)">
        <path
           inkscape:connector-curvature="0"
           id="path3008"
           style="font-size:45.09999847px;font-variant:normal;font-weight:bold;font-stretch:normal;fill:#ffffff;font-family:generic;-inkscape-font-specification:generic Bold"
           d="m 322.85053,756.03406 4.7355,0 1.3079,-7.9827 4.8708,0 0,-4.4649 -4.1492,0 1.0373,-6.4944 4.9159,0 0,-4.4649 -4.1492,0 1.1275,-7.0356 -4.7355,0 -1.1275,7.0356 -5.1865,0 1.1275,-7.0356 -4.7355,0 -1.1275,7.0356 -5.0963,0 0,4.4649 4.3296,0 -1.0373,6.4944 -5.0963,0 0,4.4649 4.3747,0 -1.3079,7.9827 4.7355,0 1.3079,-7.9827 5.1865,0 -1.3079,7.9827 m 2.0295,-12.4476 -5.1865,0 1.0373,-6.4944 5.1865,0 -1.0373,6.4944" />
      </g>
    </g>
  </g>
</svg>
