<?xml version="1.0" encoding="UTF-8" standalone="no"?>
<!-- Created with Inkscape (http://www.inkscape.org/) -->

<svg
   xmlns:dc="http://purl.org/dc/elements/1.1/"
   xmlns:cc="http://creativecommons.org/ns#"
   xmlns:rdf="http://www.w3.org/1999/02/22-rdf-syntax-ns#"
   xmlns:svg="http://www.w3.org/2000/svg"
   xmlns="http://www.w3.org/2000/svg"
   xmlns:sodipodi="http://sodipodi.sourceforge.net/DTD/sodipodi-0.dtd"
   xmlns:inkscape="http://www.inkscape.org/namespaces/inkscape"
   width="255.4948"
   height="46"
   id="svg3877"
   version="1.1"
   inkscape:version="0.48.4 r9939"
   sodipodi:docname="redstats_logo.svg"
   inkscape:export-filename="/run/user/1000/gvfs/sftp:host=jeroenpraat.nl,port=69,user=root/var/www/redmatrix/assets/hashlogo2.png"
   inkscape:export-xdpi="156.42857"
   inkscape:export-ydpi="156.42857">
  <defs
     id="defs3" />
  <sodipodi:namedview
     inkscape:document-units="mm"
     id="base"
     pagecolor="#ffffff"
     bordercolor="#666666"
     borderopacity="1.0"
     inkscape:pageopacity="0.0"
     inkscape:pageshadow="2"
     inkscape:zoom="3.7759502"
     inkscape:cx="151.56789"
     inkscape:cy="22.800257"
     inkscape:current-layer="layer1"
     showgrid="false"
     inkscape:window-width="1215"
     inkscape:window-height="656"
     inkscape:window-x="103"
     inkscape:window-y="271"
     inkscape:window-maximized="0"
     units="px"
     fit-margin-top="2"
     fit-margin-left="2"
     fit-margin-right="2"
     fit-margin-bottom="2" />
  <metadata
     id="metadata4">
    <rdf:RDF>
      <cc:Work
         rdf:about="">
        <dc:format>image/svg+xml</dc:format>
        <dc:type
           rdf:resource="http://purl.org/dc/dcmitype/StillImage" />
        <dc:title />
      </cc:Work>
    </rdf:RDF>
  </metadata>
  <g
     inkscape:label="Layer 1"
     inkscape:groupmode="layer"
     id="layer1"
     transform="translate(-242.69473,-717.93361)">
    <path
       inkscape:connector-curvature="0"
       id="path2998"
       style="font-size:40px;font-style:normal;font-variant:normal;font-weight:normal;font-stretch:normal;line-height:125%;letter-spacing:0px;word-spacing:0px;fill:#3c3c3c;fill-opacity:1;stroke:none;font-family:Designosaur;-inkscape-font-specification:Designosaur"
       d="m 248.69473,755.61224 c 0.56,0 0.8,-0.24 0.8,-0.8 l 0,-12.24 c 0,-2.51999 1.32001,-3.88 3.8,-3.88 0.76,0 1.64,0.44 1.64,-0.6 l 0,-3 c 0,-0.56 -0.16,-0.6 -0.72,-0.6 -1.72,0.04 -3.72,10e-6 -5.44,2.64 l -0.08,0 -0.4,-1.52 c -0.24,-0.52 -0.24,-0.8 -0.8,-0.8 l -2,0 c -0.56,0 -0.8,0.24 -0.8,0.8 l 0,19.2 c 0,0.56 0.24,0.8 0.8,0.8 l 3.2,0" />
    <path
       inkscape:connector-curvature="0"
       id="path3000"
       style="font-size:40px;font-style:normal;font-variant:normal;font-weight:normal;font-stretch:normal;line-height:125%;letter-spacing:0px;word-spacing:0px;fill:#3c3c3c;fill-opacity:1;stroke:none;font-family:Designosaur;-inkscape-font-specification:Designosaur"
       d="m 272.47473,751.81224 c -0.12,-0.16 -0.24,-0.32 -1.04,-0.08 -1.64,0.52 -3.16,1 -4.72,1 -3.51999,0 -4.72,-2.48 -5.04,-5.84 l 8.2,0 c 3.32,0 4.36,-0.92 4.36,-4 0,-5.79999 -3.72,-8.6 -8.56,-8.6 -6.47999,0 -8.88,4.96001 -8.88,11.12 0,5.6 2.00001,10.68 9.4,10.68 3.4,0 6.32,-1.08 7.08,-1.96 0.32,-0.36 0.28,-0.68 0.04,-1.04 l -0.84,-1.28 m -10.8,-8.28 c 0.24,-3.15999 1.28001,-5.88 4.2,-5.88 2.12,0 3.52,2.16001 3.52,4.52 0,1.2 -0.32,1.36 -1.56,1.36 l -6.16,0" />
    <path
       inkscape:connector-curvature="0"
       id="path3002"
       style="font-size:40px;font-style:normal;font-variant:normal;font-weight:normal;font-stretch:normal;line-height:125%;letter-spacing:0px;word-spacing:0px;fill:#3c3c3c;fill-opacity:1;stroke:none;font-family:Designosaur;-inkscape-font-specification:Designosaur"
       d="m 296.25973,755.61224 c 0.56,0 0.8,-0.24 0.8,-0.8 l 0,-28 c 0,-0.56 -0.24,-0.8 -0.8,-0.8 l -3.2,0 c -0.56,0 -0.8,0.24 -0.8,0.8 l 0,10.44 -0.08,0 c -1,-1.51999 -2.76,-2.92 -6.16,-2.92 -4.63999,0 -8.6,2.64001 -8.6,10.96 0,8.24 3.92001,10.84 8.48,10.84 3.04,0 5.44,-0.92 7.08,-3 l 0.08,0 0.4,1.68 c 0.12,0.56 0.24,0.8 0.8,0.8 l 2,0 m -9.52,-2.84 c -2.91999,0 -4.52,-1.44 -4.52,-7.48 0,-6.23999 1.72001,-7.6 4.48,-7.6 3.52,0 5.56,2.16001 5.56,7.6 0,5.32 -1.96,7.48 -5.52,7.48" />
    <g
       style="font-size:40px;font-style:normal;font-weight:normal;line-height:125%;letter-spacing:0px;word-spacing:0px;fill:#3c3c3c;fill-opacity:1;stroke:none;font-family:Sans"
       id="text3016">
      <text
         xml:space="preserve"
         style="font-size:40px;font-style:normal;font-weight:normal;line-height:125%;letter-spacing:0px;word-spacing:0px;fill:#000000;fill-opacity:1;stroke:none;font-family:Sans"
         x="345.54828"
         y="755.86993"
         id="text2995"
         sodipodi:linespacing="125%"><tspan
           sodipodi:role="line"
           id="tspan2997"
           x="345.54828"
           y="755.86993"
           style="font-style:normal;font-variant:normal;font-weight:normal;font-stretch:normal;fill:#3c3c3c;fill-opacity:1;font-family:Designosaur;-inkscape-font-specification:Designosaur">statistics</tspan></text>
    </g>
    <g
       transform="translate(297.71932,716.61674)"
       style="display:inline"
       id="g3015">
      <g
         id="g2989"
         transform="translate(-298.31844,-716.3903)">
        <path
           transform="matrix(0.94,0,0,0.9075862,138.86175,379.85869)"
           sodipodi:type="arc"
           id="path3028-4-5-3"
           sodipodi:cx="195.74467"
           sodipodi:cy="397.84091"
           sodipodi:rx="22.340425"
           sodipodi:ry="23.138298"
           d="m 218.0851,397.84091 c 0,12.77893 -10.00215,23.1383 -22.34043,23.1383 -12.33827,0 -22.34042,-10.35937 -22.34042,-23.1383 0,-12.77893 10.00215,-23.1383 22.34042,-23.1383 12.33828,0 22.34043,10.35937 22.34043,23.1383 z"
           style="fill:#c60032;fill-opacity:1;stroke:none" />
        <path
           style="fill:#cd7e96;fill-opacity:1;stroke:none"
           d="M 22.405102,45.398543 C 18.324212,44.933152 14.273185,43.231527 11.246185,40.711266 8.0133608,38.019635 5.7119538,34.568246 4.4694466,30.548281 4.1064296,29.373788 3.6960691,27.410087 3.793325,27.312831 c 0.030266,-0.03026 4.594038,-0.647538 10.141717,-1.371716 5.547679,-0.724178 10.201448,-1.33669 10.341709,-1.361137 0.231836,-0.04041 0.683247,0.800314 4.965358,9.247656 2.590686,5.110657 4.725247,9.330796 4.743471,9.378085 0.04351,0.112912 -1.938435,0.932205 -3.325644,1.374748 -2.321909,0.740727 -5.859183,1.09128 -8.254834,0.818076 z"
           id="path3760"
           inkscape:connector-curvature="0"
           transform="translate(298.31844,716.3903)" />
        <path
           style="fill:#de6683;fill-opacity:1;stroke:none"
           d="m 31.928629,38.792008 c -1.236785,-2.428997 -3.372882,-6.630727 -4.746881,-9.337177 l -2.498181,-4.920819 8.089588,-5.991922 c 4.449273,-3.295556 8.229566,-6.083531 8.400651,-6.195499 l 0.311066,-0.203577 0.57696,0.896418 c 1.648359,2.561045 2.777,5.524079 3.206853,8.418986 0.208695,1.405494 0.238217,4.387406 0.05699,5.756878 -0.488017,3.687875 -2.178323,7.692384 -4.362355,10.334873 -0.807451,0.976943 -2.18454,2.365659 -3.142518,3.169051 -0.724045,0.607206 -3.443426,2.489147 -3.596787,2.489147 -0.02568,0 -1.058605,-1.987361 -2.29539,-4.416359 z"
           id="path3762"
           inkscape:connector-curvature="0"
           transform="translate(298.31844,716.3903)" />
        <path
           style="fill:#d03b5f;fill-opacity:1;stroke:none"
           d="m 24.656834,13.880322 0,-10.3904002 0.490762,0.055355 c 0.269919,0.030445 0.984411,0.1095546 1.58776,0.1757988 3.473735,0.3813964 6.56348,1.5022095 9.526559,3.4557848 1.005399,0.6628659 1.676628,1.2456868 3.219688,2.795624 1.07571,1.0805036 1.903806,2.0006216 1.847575,2.0528856 -0.240692,0.223713 -16.540485,12.245353 -16.603119,12.245353 -0.03807,0 -0.06922,-4.67568 -0.06922,-10.390401 z"
           id="path3764"
           inkscape:connector-curvature="0"
           transform="translate(298.31844,716.3903)" />
      </g>
      <g
         id="text3003-0-4-0"
         style="font-size:46px;font-style:normal;font-weight:normal;line-height:125%;letter-spacing:0px;word-spacing:0px;fill:#ffffff;fill-opacity:1;stroke:none;font-family:Sans"
         transform="translate(-298.06862,-716.58308)">
        <path
           inkscape:connector-curvature="0"
           id="path3008"
           style="font-size:45.09999847px;font-variant:normal;font-weight:bold;font-stretch:normal;fill:#ffffff;font-family:generic;-inkscape-font-specification:generic Bold"
           d="m 322.85053,756.03406 4.7355,0 1.3079,-7.9827 4.8708,0 0,-4.4649 -4.1492,0 1.0373,-6.4944 4.9159,0 0,-4.4649 -4.1492,0 1.1275,-7.0356 -4.7355,0 -1.1275,7.0356 -5.1865,0 1.1275,-7.0356 -4.7355,0 -1.1275,7.0356 -5.0963,0 0,4.4649 4.3296,0 -1.0373,6.4944 -5.0963,0 0,4.4649 4.3747,0 -1.3079,7.9827 4.7355,0 1.3079,-7.9827 5.1865,0 -1.3079,7.9827 m 2.0295,-12.4476 -5.1865,0 1.0373,-6.4944 5.1865,0 -1.0373,6.4944" />
      </g>
    </g>
  </g>
</svg>
